<svg height="54.851" viewBox="0 0 90.193 54.851" width="90.193" xmlns="http://www.w3.org/2000/svg" xmlns:xlink="http://www.w3.org/1999/xlink"><linearGradient id="a" gradientUnits="objectBoundingBox" x1=".659" x2=".5" y1=".15" y2="1"><stop offset="0" stop-color="#3763eb"/><stop offset="1" stop-color="#6f58e8"/></linearGradient><g fill="url(#a)" transform="translate(-242.824 -386.956)"><path d="m268.021 419.28a4.632 4.632 0 0 1 -1.91 1.743 6.616 6.616 0 0 1 -3.079.654 7.975 7.975 0 0 1 -3.2-.608 5.391 5.391 0 0 1 -2.255-1.754 5.053 5.053 0 0 1 -.967-2.674h.476a5.631 5.631 0 0 1 3.914 1.692l.014.014a2.578 2.578 0 0 0 1.874.68 2.179 2.179 0 0 0 1.611-.561 1.956 1.956 0 0 0 .561-1.444 1.9 1.9 0 0 0 -.453-1.3 3.336 3.336 0 0 0 -1.145-.824q-.693-.309-1.91-.716a18.725 18.725 0 0 1 -2.578-1.039 4.737 4.737 0 0 1 -1.707-1.492 4.271 4.271 0 0 1 -.7-2.554 4.152 4.152 0 0 1 1.564-3.425 6.426 6.426 0 0 1 4.142-1.254 6.568 6.568 0 0 1 4.261 1.289 4.869 4.869 0 0 1 1.8 3.435h-.666a5.385 5.385 0 0 1 -3.71-1.48l-.012-.012a2.377 2.377 0 0 0 -1.694-.585 2.24 2.24 0 0 0 -1.5.491 1.992 1.992 0 0 0 -.131 2.65 3.345 3.345 0 0 0 1.121.8 18.175 18.175 0 0 0 1.851.693 24.934 24.934 0 0 1 2.638 1.075 4.651 4.651 0 0 1 1.73 1.5 4.425 4.425 0 0 1 .716 2.626 4.576 4.576 0 0 1 -.656 2.38z" transform="translate(-2.503 -3.181)"/><path d="m286.817 409.756a5.484 5.484 0 0 1 2.089 2.351 9.073 9.073 0 0 1 0 7.233 5.475 5.475 0 0 1 -2.089 2.351 5.679 5.679 0 0 1 -3.008.811 4.958 4.958 0 0 1 -2.852-.8 4.37 4.37 0 0 1 -1.683-2.137v9.071h-3.366v-19.525h3.362v2.743a4.311 4.311 0 0 1 1.683-2.126 5.025 5.025 0 0 1 2.852-.787 5.7 5.7 0 0 1 3.012.815zm-6.577 3.163a4.431 4.431 0 0 0 0 5.586 3.615 3.615 0 0 0 5.049.024 3.934 3.934 0 0 0 .955-2.8 3.98 3.98 0 0 0 -.955-2.816 3.3 3.3 0 0 0 -2.531-1.026 3.335 3.335 0 0 0 -2.518 1.036z" transform="translate(-6.029 -4.006)"/><path d="m305.044 409.734a4.3 4.3 0 0 1 1.7 2.126v-2.745h3.341v9.885a3.342 3.342 0 0 1 -3.341 3.341v-2.771a4.349 4.349 0 0 1 -1.7 2.137 5.019 5.019 0 0 1 -2.862.8 5.675 5.675 0 0 1 -3.008-.811 5.475 5.475 0 0 1 -2.089-2.351 9.073 9.073 0 0 1 0-7.233 5.484 5.484 0 0 1 2.089-2.351 5.689 5.689 0 0 1 3.008-.811 5.087 5.087 0 0 1 2.862.784zm-4.345 3.175a3.973 3.973 0 0 0 -.955 2.816 3.923 3.923 0 0 0 .955 2.8 3.615 3.615 0 0 0 5.049-.024 4.433 4.433 0 0 0 0-5.586 3.332 3.332 0 0 0 -2.519-1.039 3.3 3.3 0 0 0 -2.529 1.028z" transform="translate(-9.751 -4.007)"/><path d="m328.445 410.33a6.055 6.055 0 0 1 2.136 3.772h-1.66a2.444 2.444 0 0 1 -1.566-.567l-1.309-1.093a3 3 0 0 0 -1.92-.608 2.738 2.738 0 0 0 -.687.087q-2.453.643-2.453 3.8t2.453 3.8a2.662 2.662 0 0 0 .686.087 3 3 0 0 0 1.918-.608l.7-.586a4.627 4.627 0 0 1 2.963-1.074h.87a6.051 6.051 0 0 1 -2.136 3.772 6.547 6.547 0 0 1 -4.261 1.384 7.027 7.027 0 0 1 -3.435-.823 5.781 5.781 0 0 1 -2.339-2.351 8.217 8.217 0 0 1 0-7.222 5.694 5.694 0 0 1 2.339-2.351 7.137 7.137 0 0 1 3.435-.811 6.55 6.55 0 0 1 4.266 1.392z" transform="translate(-13.621 -4.006)"/><path d="m350.076 416.369h-9.691a3.636 3.636 0 0 0 .955 2.6 3.066 3.066 0 0 0 2.2.836 3.188 3.188 0 0 0 1.945-.572c.039-.029.077-.059.114-.089a6.427 6.427 0 0 1 4.089-1.463h.346a5.706 5.706 0 0 1 -1.122 2.483 5.866 5.866 0 0 1 -2.208 1.717 7.565 7.565 0 0 1 -6.433-.2 5.782 5.782 0 0 1 -2.339-2.351 8.216 8.216 0 0 1 0-7.222 5.7 5.7 0 0 1 2.339-2.351 7.137 7.137 0 0 1 3.435-.811 6.979 6.979 0 0 1 3.426.811 5.741 5.741 0 0 1 2.268 2.232 6.484 6.484 0 0 1 .8 3.234 6.366 6.366 0 0 1 -.124 1.146zm-4.117-3.938a3.232 3.232 0 0 0 -2.255-.836 3.31 3.31 0 0 0 -2.29.836 3.419 3.419 0 0 0 -1.026 2.459h6.422a2.973 2.973 0 0 0 -.85-2.462z" transform="translate(-17.178 -4.006)"/><path d="m270.121 429.527v5.107l-24 3.4.008-47.176 23.989 4.071v4.671h3.261v-7.444l-30.558-5.2v54.851l30.558-4.365v-7.914z"/></g></svg>