<svg height="230" viewBox="0 0 1920 230" width="1920" xmlns="http://www.w3.org/2000/svg" xmlns:xlink="http://www.w3.org/1999/xlink"><linearGradient id="a" gradientUnits="objectBoundingBox" x1=".532" x2=".555" y1="-.535" y2="1.416"><stop offset="0" stop-color="#3763eb"/><stop offset="1" stop-color="#6f58e8"/></linearGradient><path d="m0 0h1920v230h-1920z" fill="url(#a)"/><g fill="#fff"><path d="m9.744 2.25 69.12-2.25-9.744 51.9-69.12 2.245z" opacity=".04" transform="matrix(.97437006 -.22495105 .22495105 .97437006 261.43330013 42.25619379)"/><path d="m9.744 2.25 49.698-2.25-9.742 38.36-49.7 2.249z" opacity=".04" transform="matrix(.97437006 -.22495105 .22495105 .97437006 310.3995981866 58.13207111204)"/><path d="m15.193 3.508 107.778-3.508-15.193 80.92-107.778 3.508z" opacity=".04" transform="matrix(.97437006 -.22495105 .22495105 .97437006 42.99130013 101.69319379)"/><path d="m15.193 3.508 77.494-3.508-15.193 59.813-77.494 3.508z" opacity=".04" transform="matrix(.97437006 -.22495105 .22495105 .97437006 119.34407176147 126.44904823947)"/><path d="m0 0 55.1 2.173 7.108 40.537-55.1-2.173z" opacity=".04" transform="matrix(.98162718 .190809 -.190809 .98162718 1591.54010854 35.77416582)"/><path d="m0 0 39.781 2.173 7.108 29.86-39.781-2.173z" opacity=".04" transform="matrix(.98162718 .190809 -.190809 .98162718 1621.73221287424 62.92492699938)"/><path d="m0 0 85.658 3.378 11.05 63.022-85.658-3.382z" opacity=".04" transform="matrix(.98162718 .190809 -.190809 .98162718 1776.74310854 102.74816582)"/><path d="m0 0 61.842 3.378 11.05 46.422-61.842-3.381z" opacity=".04" transform="matrix(.98162718 .190809 -.190809 .98162718 1823.67972064604 144.95658129686)"/></g></svg>